<?xml version="1.0" encoding="UTF-8" standalone="no"?>
<!DOCTYPE svg PUBLIC "-//W3C//DTD SVG 1.1//EN"
 "http://www.w3.org/Graphics/SVG/1.1/DTD/svg11.dtd">
<!-- Generated by graphviz version 2.36.0 (20140111.2315)
 -->
<!-- Title: G Pages: 1 -->
<svg width="1271pt" height="587pt"
 viewBox="0.00 0.00 1271.20 587.19" xmlns="http://www.w3.org/2000/svg" xmlns:xlink="http://www.w3.org/1999/xlink">
<g id="graph0" class="graph" transform="scale(1 1) rotate(0) translate(21.6 565.591)">
<title>G</title>
<polygon fill="#111111" stroke="none" points="-21.6,21.6 -21.6,-565.591 1249.6,-565.591 1249.6,21.6 -21.6,21.6"/>
<!-- components/Context.js -->
<g id="node1" class="node"><title>components/Context.js</title>
<path fill="none" stroke="#cfffac" d="M1022.83,-420.5C1022.83,-420.5 879.167,-420.5 879.167,-420.5 875.333,-420.5 871.5,-416.667 871.5,-412.833 871.5,-412.833 871.5,-405.167 871.5,-405.167 871.5,-401.333 875.333,-397.5 879.167,-397.5 879.167,-397.5 1022.83,-397.5 1022.83,-397.5 1026.67,-397.5 1030.5,-401.333 1030.5,-405.167 1030.5,-405.167 1030.5,-412.833 1030.5,-412.833 1030.5,-416.667 1026.67,-420.5 1022.83,-420.5"/>
<text text-anchor="middle" x="951" y="-405.3" font-family="Arial" font-size="14.00" fill="#cfffac">components/Context.js</text>
</g>
<!-- components/Provider.js -->
<g id="node2" class="node"><title>components/Provider.js</title>
<path fill="none" stroke="#c6c5fe" d="M514.833,-302.5C514.833,-302.5 367.167,-302.5 367.167,-302.5 363.333,-302.5 359.5,-298.667 359.5,-294.833 359.5,-294.833 359.5,-287.167 359.5,-287.167 359.5,-283.333 363.333,-279.5 367.167,-279.5 367.167,-279.5 514.833,-279.5 514.833,-279.5 518.667,-279.5 522.5,-283.333 522.5,-287.167 522.5,-287.167 522.5,-294.833 522.5,-294.833 522.5,-298.667 518.667,-302.5 514.833,-302.5"/>
<text text-anchor="middle" x="441" y="-287.3" font-family="Arial" font-size="14.00" fill="#c6c5fe">components/Provider.js</text>
</g>
<!-- components/Provider.js&#45;&gt;components/Context.js -->
<g id="edge1" class="edge"><title>components/Provider.js&#45;&gt;components/Context.js</title>
<path fill="none" stroke="#757575" d="M518.886,-302.287C619.971,-317.289 788.065,-342.853 816,-351 852.629,-361.683 892.508,-379.854 919.153,-393.014"/>
<polygon fill="#757575" stroke="#757575" points="917.831,-396.267 928.34,-397.613 920.965,-390.007 917.831,-396.267"/>
</g>
<!-- utils/Subscription.js -->
<g id="node3" class="node"><title>utils/Subscription.js</title>
<path fill="none" stroke="#c6c5fe" d="M762.333,-302.5C762.333,-302.5 641.667,-302.5 641.667,-302.5 637.833,-302.5 634,-298.667 634,-294.833 634,-294.833 634,-287.167 634,-287.167 634,-283.333 637.833,-279.5 641.667,-279.5 641.667,-279.5 762.333,-279.5 762.333,-279.5 766.167,-279.5 770,-283.333 770,-287.167 770,-287.167 770,-294.833 770,-294.833 770,-298.667 766.167,-302.5 762.333,-302.5"/>
<text text-anchor="middle" x="702" y="-287.3" font-family="Arial" font-size="14.00" fill="#c6c5fe">utils/Subscription.js</text>
</g>
<!-- components/Provider.js&#45;&gt;utils/Subscription.js -->
<g id="edge2" class="edge"><title>components/Provider.js&#45;&gt;utils/Subscription.js</title>
<path fill="none" stroke="#757575" d="M522.529,-291C554.688,-291 591.572,-291 623.43,-291"/>
<polygon fill="#757575" stroke="#757575" points="623.585,-294.5 633.585,-291 623.585,-287.5 623.585,-294.5"/>
</g>
<!-- utils/batch.js -->
<g id="node21" class="node"><title>utils/batch.js</title>
<path fill="none" stroke="#cfffac" d="M990.333,-242.5C990.333,-242.5 911.667,-242.5 911.667,-242.5 907.833,-242.5 904,-238.667 904,-234.833 904,-234.833 904,-227.167 904,-227.167 904,-223.333 907.833,-219.5 911.667,-219.5 911.667,-219.5 990.333,-219.5 990.333,-219.5 994.167,-219.5 998,-223.333 998,-227.167 998,-227.167 998,-234.833 998,-234.833 998,-238.667 994.167,-242.5 990.333,-242.5"/>
<text text-anchor="middle" x="951" y="-227.3" font-family="Arial" font-size="14.00" fill="#cfffac">utils/batch.js</text>
</g>
<!-- utils/Subscription.js&#45;&gt;utils/batch.js -->
<g id="edge37" class="edge"><title>utils/Subscription.js&#45;&gt;utils/batch.js</title>
<path fill="none" stroke="#757575" d="M769.855,-279.714C785.084,-276.828 801.149,-273.532 816,-270 845.862,-262.898 878.983,-253.275 904.826,-245.364"/>
<polygon fill="#757575" stroke="#757575" points="906.184,-248.608 914.707,-242.315 904.12,-241.919 906.184,-248.608"/>
</g>
<!-- components/connectAdvanced.js -->
<g id="node4" class="node"><title>components/connectAdvanced.js</title>
<path fill="none" stroke="#c6c5fe" d="M544.333,-261.5C544.333,-261.5 337.667,-261.5 337.667,-261.5 333.833,-261.5 330,-257.667 330,-253.833 330,-253.833 330,-246.167 330,-246.167 330,-242.333 333.833,-238.5 337.667,-238.5 337.667,-238.5 544.333,-238.5 544.333,-238.5 548.167,-238.5 552,-242.333 552,-246.167 552,-246.167 552,-253.833 552,-253.833 552,-257.667 548.167,-261.5 544.333,-261.5"/>
<text text-anchor="middle" x="441" y="-246.3" font-family="Arial" font-size="14.00" fill="#c6c5fe">components/connectAdvanced.js</text>
</g>
<!-- components/connectAdvanced.js&#45;&gt;components/Context.js -->
<g id="edge3" class="edge"><title>components/connectAdvanced.js&#45;&gt;components/Context.js</title>
<path fill="none" stroke="#757575" d="M506.717,-238.724C599.135,-223.902 763.551,-202.659 816,-229 883.433,-262.867 925.534,-348.528 942.034,-388.22"/>
<polygon fill="#757575" stroke="#757575" points="938.864,-389.719 945.844,-397.69 945.358,-387.106 938.864,-389.719"/>
</g>
<!-- components/connectAdvanced.js&#45;&gt;utils/Subscription.js -->
<g id="edge4" class="edge"><title>components/connectAdvanced.js&#45;&gt;utils/Subscription.js</title>
<path fill="none" stroke="#757575" d="M513.115,-261.258C547.327,-266.673 588.414,-273.177 623.43,-278.721"/>
<polygon fill="#757575" stroke="#757575" points="623.185,-282.225 633.609,-280.332 624.279,-275.311 623.185,-282.225"/>
</g>
<!-- utils/useIsomorphicLayoutEffect.js -->
<g id="node5" class="node"><title>utils/useIsomorphicLayoutEffect.js</title>
<path fill="none" stroke="#cfffac" d="M808.333,-261.5C808.333,-261.5 595.667,-261.5 595.667,-261.5 591.833,-261.5 588,-257.667 588,-253.833 588,-253.833 588,-246.167 588,-246.167 588,-242.333 591.833,-238.5 595.667,-238.5 595.667,-238.5 808.333,-238.5 808.333,-238.5 812.167,-238.5 816,-242.333 816,-246.167 816,-246.167 816,-253.833 816,-253.833 816,-257.667 812.167,-261.5 808.333,-261.5"/>
<text text-anchor="middle" x="702" y="-246.3" font-family="Arial" font-size="14.00" fill="#cfffac">utils/useIsomorphicLayoutEffect.js</text>
</g>
<!-- components/connectAdvanced.js&#45;&gt;utils/useIsomorphicLayoutEffect.js -->
<g id="edge5" class="edge"><title>components/connectAdvanced.js&#45;&gt;utils/useIsomorphicLayoutEffect.js</title>
<path fill="none" stroke="#757575" d="M552.215,-250C560.725,-250 569.349,-250 577.936,-250"/>
<polygon fill="#757575" stroke="#757575" points="577.989,-253.5 587.989,-250 577.989,-246.5 577.989,-253.5"/>
</g>
<!-- connect/connect.js -->
<g id="node6" class="node"><title>connect/connect.js</title>
<path fill="none" stroke="#c6c5fe" d="M255.333,-161.5C255.333,-161.5 138.667,-161.5 138.667,-161.5 134.833,-161.5 131,-157.667 131,-153.833 131,-153.833 131,-146.167 131,-146.167 131,-142.333 134.833,-138.5 138.667,-138.5 138.667,-138.5 255.333,-138.5 255.333,-138.5 259.167,-138.5 263,-142.333 263,-146.167 263,-146.167 263,-153.833 263,-153.833 263,-157.667 259.167,-161.5 255.333,-161.5"/>
<text text-anchor="middle" x="197" y="-146.3" font-family="Arial" font-size="14.00" fill="#c6c5fe">connect/connect.js</text>
</g>
<!-- connect/connect.js&#45;&gt;components/connectAdvanced.js -->
<g id="edge6" class="edge"><title>connect/connect.js&#45;&gt;components/connectAdvanced.js</title>
<path fill="none" stroke="#757575" d="M225.29,-161.277C268.863,-179.282 354.211,-214.55 403.158,-234.776"/>
<polygon fill="#757575" stroke="#757575" points="401.86,-238.027 412.438,-238.611 404.533,-231.557 401.86,-238.027"/>
</g>
<!-- connect/mapDispatchToProps.js -->
<g id="node7" class="node"><title>connect/mapDispatchToProps.js</title>
<path fill="none" stroke="#c6c5fe" d="M542.333,-140.5C542.333,-140.5 339.667,-140.5 339.667,-140.5 335.833,-140.5 332,-136.667 332,-132.833 332,-132.833 332,-125.167 332,-125.167 332,-121.333 335.833,-117.5 339.667,-117.5 339.667,-117.5 542.333,-117.5 542.333,-117.5 546.167,-117.5 550,-121.333 550,-125.167 550,-125.167 550,-132.833 550,-132.833 550,-136.667 546.167,-140.5 542.333,-140.5"/>
<text text-anchor="middle" x="441" y="-125.3" font-family="Arial" font-size="14.00" fill="#c6c5fe">connect/mapDispatchToProps.js</text>
</g>
<!-- connect/connect.js&#45;&gt;connect/mapDispatchToProps.js -->
<g id="edge7" class="edge"><title>connect/connect.js&#45;&gt;connect/mapDispatchToProps.js</title>
<path fill="none" stroke="#757575" d="M263.17,-144.345C281.254,-142.776 301.468,-141.021 321.588,-139.275"/>
<polygon fill="#757575" stroke="#757575" points="322.106,-142.744 331.766,-138.392 321.501,-135.77 322.106,-142.744"/>
</g>
<!-- connect/mapStateToProps.js -->
<g id="node8" class="node"><title>connect/mapStateToProps.js</title>
<path fill="none" stroke="#c6c5fe" d="M531.333,-181.5C531.333,-181.5 350.667,-181.5 350.667,-181.5 346.833,-181.5 343,-177.667 343,-173.833 343,-173.833 343,-166.167 343,-166.167 343,-162.333 346.833,-158.5 350.667,-158.5 350.667,-158.5 531.333,-158.5 531.333,-158.5 535.167,-158.5 539,-162.333 539,-166.167 539,-166.167 539,-173.833 539,-173.833 539,-177.667 535.167,-181.5 531.333,-181.5"/>
<text text-anchor="middle" x="441" y="-166.3" font-family="Arial" font-size="14.00" fill="#c6c5fe">connect/mapStateToProps.js</text>
</g>
<!-- connect/connect.js&#45;&gt;connect/mapStateToProps.js -->
<g id="edge8" class="edge"><title>connect/connect.js&#45;&gt;connect/mapStateToProps.js</title>
<path fill="none" stroke="#757575" d="M263.17,-155.386C284.606,-157.158 309.037,-159.177 332.754,-161.137"/>
<polygon fill="#757575" stroke="#757575" points="332.609,-164.637 342.864,-161.972 333.186,-157.66 332.609,-164.637"/>
</g>
<!-- connect/mergeProps.js -->
<g id="node9" class="node"><title>connect/mergeProps.js</title>
<path fill="none" stroke="#c6c5fe" d="M774.333,-101.5C774.333,-101.5 629.667,-101.5 629.667,-101.5 625.833,-101.5 622,-97.6667 622,-93.8333 622,-93.8333 622,-86.1667 622,-86.1667 622,-82.3333 625.833,-78.5 629.667,-78.5 629.667,-78.5 774.333,-78.5 774.333,-78.5 778.167,-78.5 782,-82.3333 782,-86.1667 782,-86.1667 782,-93.8333 782,-93.8333 782,-97.6667 778.167,-101.5 774.333,-101.5"/>
<text text-anchor="middle" x="702" y="-86.3" font-family="Arial" font-size="14.00" fill="#c6c5fe">connect/mergeProps.js</text>
</g>
<!-- connect/connect.js&#45;&gt;connect/mergeProps.js -->
<g id="edge9" class="edge"><title>connect/connect.js&#45;&gt;connect/mergeProps.js</title>
<path fill="none" stroke="#757575" d="M245.32,-138.73C260.975,-134.593 278.38,-129.549 294,-124 310.499,-118.139 312.965,-112.049 330,-108 424.266,-85.5947 535.681,-83.2893 611.642,-85.2077"/>
<polygon fill="#757575" stroke="#757575" points="611.559,-88.7067 621.654,-85.4902 611.757,-81.7094 611.559,-88.7067"/>
</g>
<!-- connect/selectorFactory.js -->
<g id="node10" class="node"><title>connect/selectorFactory.js</title>
<path fill="none" stroke="#c6c5fe" d="M783.833,-60.5C783.833,-60.5 620.167,-60.5 620.167,-60.5 616.333,-60.5 612.5,-56.6667 612.5,-52.8333 612.5,-52.8333 612.5,-45.1667 612.5,-45.1667 612.5,-41.3333 616.333,-37.5 620.167,-37.5 620.167,-37.5 783.833,-37.5 783.833,-37.5 787.667,-37.5 791.5,-41.3333 791.5,-45.1667 791.5,-45.1667 791.5,-52.8333 791.5,-52.8333 791.5,-56.6667 787.667,-60.5 783.833,-60.5"/>
<text text-anchor="middle" x="702" y="-45.3" font-family="Arial" font-size="14.00" fill="#c6c5fe">connect/selectorFactory.js</text>
</g>
<!-- connect/connect.js&#45;&gt;connect/selectorFactory.js -->
<g id="edge10" class="edge"><title>connect/connect.js&#45;&gt;connect/selectorFactory.js</title>
<path fill="none" stroke="#757575" d="M261.528,-138.686C272.867,-135.057 284.182,-130.281 294,-124 314.996,-110.568 307.891,-92.5076 330,-81 414.106,-37.2231 523.614,-33.1034 601.811,-37.5697"/>
<polygon fill="#757575" stroke="#757575" points="601.95,-41.0852 612.15,-38.2203 602.389,-34.099 601.95,-41.0852"/>
</g>
<!-- utils/shallowEqual.js -->
<g id="node11" class="node"><title>utils/shallowEqual.js</title>
<path fill="none" stroke="#cfffac" d="M504.333,-22.5C504.333,-22.5 377.667,-22.5 377.667,-22.5 373.833,-22.5 370,-18.6667 370,-14.8333 370,-14.8333 370,-7.16667 370,-7.16667 370,-3.33333 373.833,0.5 377.667,0.5 377.667,0.5 504.333,0.5 504.333,0.5 508.167,0.5 512,-3.33333 512,-7.16667 512,-7.16667 512,-14.8333 512,-14.8333 512,-18.6667 508.167,-22.5 504.333,-22.5"/>
<text text-anchor="middle" x="441" y="-7.3" font-family="Arial" font-size="14.00" fill="#cfffac">utils/shallowEqual.js</text>
</g>
<!-- connect/connect.js&#45;&gt;utils/shallowEqual.js -->
<g id="edge11" class="edge"><title>connect/connect.js&#45;&gt;utils/shallowEqual.js</title>
<path fill="none" stroke="#757575" d="M263.014,-141.076C274.278,-137.225 285.184,-131.755 294,-124 325.42,-96.3609 298.137,-64.1267 330,-37 338.725,-29.5717 349.193,-24.1795 360.155,-20.2809"/>
<polygon fill="#757575" stroke="#757575" points="361.392,-23.5611 369.884,-17.2257 359.295,-16.8826 361.392,-23.5611"/>
</g>
<!-- connect/wrapMapToProps.js -->
<g id="node12" class="node"><title>connect/wrapMapToProps.js</title>
<path fill="none" stroke="#c6c5fe" d="M791.333,-142.5C791.333,-142.5 612.667,-142.5 612.667,-142.5 608.833,-142.5 605,-138.667 605,-134.833 605,-134.833 605,-127.167 605,-127.167 605,-123.333 608.833,-119.5 612.667,-119.5 612.667,-119.5 791.333,-119.5 791.333,-119.5 795.167,-119.5 799,-123.333 799,-127.167 799,-127.167 799,-134.833 799,-134.833 799,-138.667 795.167,-142.5 791.333,-142.5"/>
<text text-anchor="middle" x="702" y="-127.3" font-family="Arial" font-size="14.00" fill="#c6c5fe">connect/wrapMapToProps.js</text>
</g>
<!-- connect/mapDispatchToProps.js&#45;&gt;connect/wrapMapToProps.js -->
<g id="edge12" class="edge"><title>connect/mapDispatchToProps.js&#45;&gt;connect/wrapMapToProps.js</title>
<path fill="none" stroke="#757575" d="M550.339,-129.837C564.98,-129.95 579.993,-130.066 594.6,-130.178"/>
<polygon fill="#757575" stroke="#757575" points="594.612,-133.678 604.638,-130.256 594.666,-126.679 594.612,-133.678"/>
</g>
<!-- connect/mapStateToProps.js&#45;&gt;connect/wrapMapToProps.js -->
<g id="edge13" class="edge"><title>connect/mapStateToProps.js&#45;&gt;connect/wrapMapToProps.js</title>
<path fill="none" stroke="#757575" d="M516.914,-158.72C547.92,-154.051 584.036,-148.612 616.025,-143.795"/>
<polygon fill="#757575" stroke="#757575" points="616.887,-147.205 626.255,-142.255 615.845,-140.283 616.887,-147.205"/>
</g>
<!-- utils/verifyPlainObject.js -->
<g id="node13" class="node"><title>utils/verifyPlainObject.js</title>
<path fill="none" stroke="#c6c5fe" d="M1025.33,-101.5C1025.33,-101.5 876.667,-101.5 876.667,-101.5 872.833,-101.5 869,-97.6667 869,-93.8333 869,-93.8333 869,-86.1667 869,-86.1667 869,-82.3333 872.833,-78.5 876.667,-78.5 876.667,-78.5 1025.33,-78.5 1025.33,-78.5 1029.17,-78.5 1033,-82.3333 1033,-86.1667 1033,-86.1667 1033,-93.8333 1033,-93.8333 1033,-97.6667 1029.17,-101.5 1025.33,-101.5"/>
<text text-anchor="middle" x="951" y="-86.3" font-family="Arial" font-size="14.00" fill="#c6c5fe">utils/verifyPlainObject.js</text>
</g>
<!-- connect/mergeProps.js&#45;&gt;utils/verifyPlainObject.js -->
<g id="edge14" class="edge"><title>connect/mergeProps.js&#45;&gt;utils/verifyPlainObject.js</title>
<path fill="none" stroke="#757575" d="M782.172,-90C806.479,-90 833.429,-90 858.491,-90"/>
<polygon fill="#757575" stroke="#757575" points="858.73,-93.5001 868.73,-90 858.73,-86.5001 858.73,-93.5001"/>
</g>
<!-- connect/verifySubselectors.js -->
<g id="node14" class="node"><title>connect/verifySubselectors.js</title>
<path fill="none" stroke="#c6c5fe" d="M1042.33,-60.5C1042.33,-60.5 859.667,-60.5 859.667,-60.5 855.833,-60.5 852,-56.6667 852,-52.8333 852,-52.8333 852,-45.1667 852,-45.1667 852,-41.3333 855.833,-37.5 859.667,-37.5 859.667,-37.5 1042.33,-37.5 1042.33,-37.5 1046.17,-37.5 1050,-41.3333 1050,-45.1667 1050,-45.1667 1050,-52.8333 1050,-52.8333 1050,-56.6667 1046.17,-60.5 1042.33,-60.5"/>
<text text-anchor="middle" x="951" y="-45.3" font-family="Arial" font-size="14.00" fill="#c6c5fe">connect/verifySubselectors.js</text>
</g>
<!-- connect/selectorFactory.js&#45;&gt;connect/verifySubselectors.js -->
<g id="edge15" class="edge"><title>connect/selectorFactory.js&#45;&gt;connect/verifySubselectors.js</title>
<path fill="none" stroke="#757575" d="M791.824,-49C807.973,-49 824.983,-49 841.622,-49"/>
<polygon fill="#757575" stroke="#757575" points="841.922,-52.5001 851.922,-49 841.922,-45.5001 841.922,-52.5001"/>
</g>
<!-- connect/wrapMapToProps.js&#45;&gt;utils/verifyPlainObject.js -->
<g id="edge17" class="edge"><title>connect/wrapMapToProps.js&#45;&gt;utils/verifyPlainObject.js</title>
<path fill="none" stroke="#757575" d="M770.821,-119.742C802.142,-114.543 839.506,-108.341 871.99,-102.949"/>
<polygon fill="#757575" stroke="#757575" points="872.61,-106.394 881.902,-101.304 871.464,-99.4885 872.61,-106.394"/>
</g>
<!-- utils/warning.js -->
<g id="node15" class="node"><title>utils/warning.js</title>
<path fill="none" stroke="#cfffac" d="M1203.33,-60.5C1203.33,-60.5 1110.67,-60.5 1110.67,-60.5 1106.83,-60.5 1103,-56.6667 1103,-52.8333 1103,-52.8333 1103,-45.1667 1103,-45.1667 1103,-41.3333 1106.83,-37.5 1110.67,-37.5 1110.67,-37.5 1203.33,-37.5 1203.33,-37.5 1207.17,-37.5 1211,-41.3333 1211,-45.1667 1211,-45.1667 1211,-52.8333 1211,-52.8333 1211,-56.6667 1207.17,-60.5 1203.33,-60.5"/>
<text text-anchor="middle" x="1157" y="-45.3" font-family="Arial" font-size="14.00" fill="#cfffac">utils/warning.js</text>
</g>
<!-- utils/verifyPlainObject.js&#45;&gt;utils/warning.js -->
<g id="edge39" class="edge"><title>utils/verifyPlainObject.js&#45;&gt;utils/warning.js</title>
<path fill="none" stroke="#757575" d="M1008.01,-78.7423C1034.27,-73.4661 1065.66,-67.1568 1092.76,-61.7096"/>
<polygon fill="#757575" stroke="#757575" points="1093.81,-65.0699 1102.92,-59.6681 1092.43,-58.2072 1093.81,-65.0699"/>
</g>
<!-- utils/isPlainObject.js -->
<g id="node23" class="node"><title>utils/isPlainObject.js</title>
<path fill="none" stroke="#cfffac" d="M1219.83,-101.5C1219.83,-101.5 1094.17,-101.5 1094.17,-101.5 1090.33,-101.5 1086.5,-97.6667 1086.5,-93.8333 1086.5,-93.8333 1086.5,-86.1667 1086.5,-86.1667 1086.5,-82.3333 1090.33,-78.5 1094.17,-78.5 1094.17,-78.5 1219.83,-78.5 1219.83,-78.5 1223.67,-78.5 1227.5,-82.3333 1227.5,-86.1667 1227.5,-86.1667 1227.5,-93.8333 1227.5,-93.8333 1227.5,-97.6667 1223.67,-101.5 1219.83,-101.5"/>
<text text-anchor="middle" x="1157" y="-86.3" font-family="Arial" font-size="14.00" fill="#cfffac">utils/isPlainObject.js</text>
</g>
<!-- utils/verifyPlainObject.js&#45;&gt;utils/isPlainObject.js -->
<g id="edge38" class="edge"><title>utils/verifyPlainObject.js&#45;&gt;utils/isPlainObject.js</title>
<path fill="none" stroke="#757575" d="M1033.21,-90C1047.34,-90 1062.02,-90 1076.11,-90"/>
<polygon fill="#757575" stroke="#757575" points="1076.25,-93.5001 1086.25,-90 1076.25,-86.5001 1076.25,-93.5001"/>
</g>
<!-- connect/verifySubselectors.js&#45;&gt;utils/warning.js -->
<g id="edge16" class="edge"><title>connect/verifySubselectors.js&#45;&gt;utils/warning.js</title>
<path fill="none" stroke="#757575" d="M1050.12,-49C1064.59,-49 1079.18,-49 1092.7,-49"/>
<polygon fill="#757575" stroke="#757575" points="1092.81,-52.5001 1102.81,-49 1092.81,-45.5001 1092.81,-52.5001"/>
</g>
<!-- hooks/useDispatch.js -->
<g id="node16" class="node"><title>hooks/useDispatch.js</title>
<path fill="none" stroke="#c6c5fe" d="M263.833,-420.5C263.833,-420.5 130.167,-420.5 130.167,-420.5 126.333,-420.5 122.5,-416.667 122.5,-412.833 122.5,-412.833 122.5,-405.167 122.5,-405.167 122.5,-401.333 126.333,-397.5 130.167,-397.5 130.167,-397.5 263.833,-397.5 263.833,-397.5 267.667,-397.5 271.5,-401.333 271.5,-405.167 271.5,-405.167 271.5,-412.833 271.5,-412.833 271.5,-416.667 267.667,-420.5 263.833,-420.5"/>
<text text-anchor="middle" x="197" y="-405.3" font-family="Arial" font-size="14.00" fill="#c6c5fe">hooks/useDispatch.js</text>
</g>
<!-- hooks/useDispatch.js&#45;&gt;components/Context.js -->
<g id="edge18" class="edge"><title>hooks/useDispatch.js&#45;&gt;components/Context.js</title>
<path fill="none" stroke="#757575" d="M257.947,-420.277C368.68,-439.404 612.566,-473.57 816,-446 847.81,-441.689 882.738,-431.87 908.957,-423.43"/>
<polygon fill="#757575" stroke="#757575" points="910.147,-426.723 918.555,-420.277 907.962,-420.073 910.147,-426.723"/>
</g>
<!-- hooks/useStore.js -->
<g id="node17" class="node"><title>hooks/useStore.js</title>
<path fill="none" stroke="#c6c5fe" d="M497.333,-420.5C497.333,-420.5 384.667,-420.5 384.667,-420.5 380.833,-420.5 377,-416.667 377,-412.833 377,-412.833 377,-405.167 377,-405.167 377,-401.333 380.833,-397.5 384.667,-397.5 384.667,-397.5 497.333,-397.5 497.333,-397.5 501.167,-397.5 505,-401.333 505,-405.167 505,-405.167 505,-412.833 505,-412.833 505,-416.667 501.167,-420.5 497.333,-420.5"/>
<text text-anchor="middle" x="441" y="-405.3" font-family="Arial" font-size="14.00" fill="#c6c5fe">hooks/useStore.js</text>
</g>
<!-- hooks/useDispatch.js&#45;&gt;hooks/useStore.js -->
<g id="edge19" class="edge"><title>hooks/useDispatch.js&#45;&gt;hooks/useStore.js</title>
<path fill="none" stroke="#757575" d="M271.594,-409C301.828,-409 336.753,-409 366.932,-409"/>
<polygon fill="#757575" stroke="#757575" points="366.971,-412.5 376.971,-409 366.971,-405.5 366.971,-412.5"/>
</g>
<!-- hooks/useStore.js&#45;&gt;components/Context.js -->
<g id="edge25" class="edge"><title>hooks/useStore.js&#45;&gt;components/Context.js</title>
<path fill="none" stroke="#757575" d="M505.048,-419.547C530.702,-423.339 560.689,-427.138 588,-429 689.099,-435.892 714.945,-436.5 816,-429 836.067,-427.511 857.686,-424.783 877.579,-421.812"/>
<polygon fill="#757575" stroke="#757575" points="878.144,-425.266 887.498,-420.29 877.083,-418.347 878.144,-425.266"/>
</g>
<!-- hooks/useReduxContext.js -->
<g id="node18" class="node"><title>hooks/useReduxContext.js</title>
<path fill="none" stroke="#c6c5fe" d="M785.833,-420.5C785.833,-420.5 618.167,-420.5 618.167,-420.5 614.333,-420.5 610.5,-416.667 610.5,-412.833 610.5,-412.833 610.5,-405.167 610.5,-405.167 610.5,-401.333 614.333,-397.5 618.167,-397.5 618.167,-397.5 785.833,-397.5 785.833,-397.5 789.667,-397.5 793.5,-401.333 793.5,-405.167 793.5,-405.167 793.5,-412.833 793.5,-412.833 793.5,-416.667 789.667,-420.5 785.833,-420.5"/>
<text text-anchor="middle" x="702" y="-405.3" font-family="Arial" font-size="14.00" fill="#c6c5fe">hooks/useReduxContext.js</text>
</g>
<!-- hooks/useStore.js&#45;&gt;hooks/useReduxContext.js -->
<g id="edge26" class="edge"><title>hooks/useStore.js&#45;&gt;hooks/useReduxContext.js</title>
<path fill="none" stroke="#757575" d="M505.027,-409C533.536,-409 567.942,-409 599.917,-409"/>
<polygon fill="#757575" stroke="#757575" points="600.202,-412.5 610.202,-409 600.202,-405.5 600.202,-412.5"/>
</g>
<!-- hooks/useReduxContext.js&#45;&gt;components/Context.js -->
<g id="edge20" class="edge"><title>hooks/useReduxContext.js&#45;&gt;components/Context.js</title>
<path fill="none" stroke="#757575" d="M793.571,-409C815.56,-409 839.051,-409 860.968,-409"/>
<polygon fill="#757575" stroke="#757575" points="861.251,-412.5 871.251,-409 861.251,-405.5 861.251,-412.5"/>
</g>
<!-- hooks/useSelector.js -->
<g id="node19" class="node"><title>hooks/useSelector.js</title>
<path fill="none" stroke="#c6c5fe" d="M506.333,-343.5C506.333,-343.5 375.667,-343.5 375.667,-343.5 371.833,-343.5 368,-339.667 368,-335.833 368,-335.833 368,-328.167 368,-328.167 368,-324.333 371.833,-320.5 375.667,-320.5 375.667,-320.5 506.333,-320.5 506.333,-320.5 510.167,-320.5 514,-324.333 514,-328.167 514,-328.167 514,-335.833 514,-335.833 514,-339.667 510.167,-343.5 506.333,-343.5"/>
<text text-anchor="middle" x="441" y="-328.3" font-family="Arial" font-size="14.00" fill="#c6c5fe">hooks/useSelector.js</text>
</g>
<!-- hooks/useSelector.js&#45;&gt;components/Context.js -->
<g id="edge21" class="edge"><title>hooks/useSelector.js&#45;&gt;components/Context.js</title>
<path fill="none" stroke="#757575" d="M514.069,-342.642C589.4,-353.801 711.029,-371.916 816,-388 833.025,-390.609 851.261,-393.441 868.625,-396.156"/>
<polygon fill="#757575" stroke="#757575" points="868.312,-399.65 878.733,-397.739 869.395,-392.734 868.312,-399.65"/>
</g>
<!-- hooks/useSelector.js&#45;&gt;utils/Subscription.js -->
<g id="edge23" class="edge"><title>hooks/useSelector.js&#45;&gt;utils/Subscription.js</title>
<path fill="none" stroke="#757575" d="M513.115,-320.742C547.327,-315.327 588.414,-308.823 623.43,-303.279"/>
<polygon fill="#757575" stroke="#757575" points="624.279,-306.689 633.609,-301.668 623.185,-299.775 624.279,-306.689"/>
</g>
<!-- hooks/useSelector.js&#45;&gt;utils/useIsomorphicLayoutEffect.js -->
<g id="edge24" class="edge"><title>hooks/useSelector.js&#45;&gt;utils/useIsomorphicLayoutEffect.js</title>
<path fill="none" stroke="#757575" d="M514.271,-325.276C527.382,-322.121 540.523,-317.563 552,-311 573.051,-298.963 566.868,-281.895 588,-270 591.228,-268.183 594.583,-266.524 598.03,-265.01"/>
<polygon fill="#757575" stroke="#757575" points="599.328,-268.261 607.345,-261.333 596.758,-261.75 599.328,-268.261"/>
</g>
<!-- hooks/useSelector.js&#45;&gt;hooks/useReduxContext.js -->
<g id="edge22" class="edge"><title>hooks/useSelector.js&#45;&gt;hooks/useReduxContext.js</title>
<path fill="none" stroke="#757575" d="M471.334,-343.316C500.598,-354.351 546.985,-371.157 588,-383 603.616,-387.509 620.622,-391.76 636.588,-395.468"/>
<polygon fill="#757575" stroke="#757575" points="635.845,-398.888 646.373,-397.703 637.404,-392.064 635.845,-398.888"/>
</g>
<!-- index.js -->
<g id="node20" class="node"><title>index.js</title>
<path fill="none" stroke="#c6c5fe" d="M56.3333,-281.5C56.3333,-281.5 7.66667,-281.5 7.66667,-281.5 3.83333,-281.5 0,-277.667 0,-273.833 0,-273.833 0,-266.167 0,-266.167 0,-262.333 3.83333,-258.5 7.66667,-258.5 7.66667,-258.5 56.3333,-258.5 56.3333,-258.5 60.1667,-258.5 64,-262.333 64,-266.167 64,-266.167 64,-273.833 64,-273.833 64,-277.667 60.1667,-281.5 56.3333,-281.5"/>
<text text-anchor="middle" x="32" y="-266.3" font-family="Arial" font-size="14.00" fill="#c6c5fe">index.js</text>
</g>
<!-- index.js&#45;&gt;components/Context.js -->
<g id="edge27" class="edge"><title>index.js&#45;&gt;components/Context.js</title>
<path fill="none" stroke="#757575" d="M34.0419,-281.56C37.4082,-311.481 50.8279,-391.719 100,-429 353.9,-621.499 503.596,-527.653 816,-465 853.87,-457.405 894.399,-438.848 920.845,-425.167"/>
<polygon fill="#757575" stroke="#757575" points="922.711,-428.14 929.92,-420.377 919.443,-421.95 922.711,-428.14"/>
</g>
<!-- index.js&#45;&gt;components/Provider.js -->
<g id="edge28" class="edge"><title>index.js&#45;&gt;components/Provider.js</title>
<path fill="none" stroke="#757575" d="M64.3358,-273.102C75.5751,-274.136 88.3475,-275.222 100,-276 184.253,-281.628 280.397,-285.647 348.899,-288.1"/>
<polygon fill="#757575" stroke="#757575" points="349.107,-291.609 359.225,-288.465 349.355,-284.613 349.107,-291.609"/>
</g>
<!-- index.js&#45;&gt;components/connectAdvanced.js -->
<g id="edge29" class="edge"><title>index.js&#45;&gt;components/connectAdvanced.js</title>
<path fill="none" stroke="#757575" d="M64.2608,-268.464C118.21,-265.813 231.483,-260.247 319.628,-255.915"/>
<polygon fill="#757575" stroke="#757575" points="319.887,-259.407 329.703,-255.42 319.543,-252.415 319.887,-259.407"/>
</g>
<!-- index.js&#45;&gt;connect/connect.js -->
<g id="edge30" class="edge"><title>index.js&#45;&gt;connect/connect.js</title>
<path fill="none" stroke="#757575" d="M40.983,-258.714C52.5405,-243.016 75.2734,-214.445 100,-196 116.749,-183.506 137.428,-173.075 155.3,-165.323"/>
<polygon fill="#757575" stroke="#757575" points="157.031,-168.392 164.897,-161.295 154.322,-161.938 157.031,-168.392"/>
</g>
<!-- index.js&#45;&gt;utils/shallowEqual.js -->
<g id="edge36" class="edge"><title>index.js&#45;&gt;utils/shallowEqual.js</title>
<path fill="none" stroke="#757575" d="M34.8495,-258.725C39.913,-231.678 56.631,-162.854 100,-129 169.327,-74.8841 221.56,-139.871 294,-90 318.68,-73.0092 305.312,-49.9786 330,-33 339.03,-26.7898 349.406,-22.2467 360.098,-18.938"/>
<polygon fill="#757575" stroke="#757575" points="361.257,-22.2498 369.978,-16.234 359.409,-15.4981 361.257,-22.2498"/>
</g>
<!-- index.js&#45;&gt;hooks/useDispatch.js -->
<g id="edge31" class="edge"><title>index.js&#45;&gt;hooks/useDispatch.js</title>
<path fill="none" stroke="#757575" d="M36.6216,-281.475C44.4006,-304.224 64.9049,-355.158 100,-382 106.188,-386.733 113.168,-390.637 120.468,-393.856"/>
<polygon fill="#757575" stroke="#757575" points="119.266,-397.144 129.852,-397.578 121.848,-390.637 119.266,-397.144"/>
</g>
<!-- index.js&#45;&gt;hooks/useStore.js -->
<g id="edge33" class="edge"><title>index.js&#45;&gt;hooks/useStore.js</title>
<path fill="none" stroke="#757575" d="M44.2407,-281.681C56.7367,-293.994 78.0641,-313.086 100,-324 186.059,-366.818 295.383,-389.159 366.484,-399.99"/>
<polygon fill="#757575" stroke="#757575" points="366.284,-403.499 376.69,-401.506 367.313,-396.575 366.284,-403.499"/>
</g>
<!-- index.js&#45;&gt;hooks/useSelector.js -->
<g id="edge32" class="edge"><title>index.js&#45;&gt;hooks/useSelector.js</title>
<path fill="none" stroke="#757575" d="M58.6241,-281.272C70.9163,-286.233 85.9866,-291.678 100,-295 186.593,-315.528 288.333,-324.701 357.803,-328.78"/>
<polygon fill="#757575" stroke="#757575" points="357.631,-332.275 367.812,-329.345 358.026,-325.287 357.631,-332.275"/>
</g>
<!-- index.js&#45;&gt;utils/batch.js -->
<g id="edge34" class="edge"><title>index.js&#45;&gt;utils/batch.js</title>
<path fill="none" stroke="#757575" d="M64.1894,-261.688C75.415,-258.927 88.2161,-256.039 100,-254 201.319,-236.468 227.548,-237.74 330,-229 545.335,-210.63 600.364,-198.582 816,-213 841.719,-214.72 870.029,-218.276 893.976,-221.777"/>
<polygon fill="#757575" stroke="#757575" points="893.544,-225.251 903.951,-223.268 894.579,-218.328 893.544,-225.251"/>
</g>
<!-- utils/reactBatchedUpdates.js -->
<g id="node22" class="node"><title>utils/reactBatchedUpdates.js</title>
<path fill="none" stroke="#cfffac" d="M286.333,-81.5C286.333,-81.5 107.667,-81.5 107.667,-81.5 103.833,-81.5 100,-77.6667 100,-73.8333 100,-73.8333 100,-66.1667 100,-66.1667 100,-62.3333 103.833,-58.5 107.667,-58.5 107.667,-58.5 286.333,-58.5 286.333,-58.5 290.167,-58.5 294,-62.3333 294,-66.1667 294,-66.1667 294,-73.8333 294,-73.8333 294,-77.6667 290.167,-81.5 286.333,-81.5"/>
<text text-anchor="middle" x="197" y="-66.3" font-family="Arial" font-size="14.00" fill="#cfffac">utils/reactBatchedUpdates.js</text>
</g>
<!-- index.js&#45;&gt;utils/reactBatchedUpdates.js -->
<g id="edge35" class="edge"><title>index.js&#45;&gt;utils/reactBatchedUpdates.js</title>
<path fill="none" stroke="#757575" d="M33.9098,-258.698C37.0198,-227.777 50.0008,-141.094 100,-96 104.436,-91.9994 109.426,-88.6052 114.739,-85.7267"/>
<polygon fill="#757575" stroke="#757575" points="116.415,-88.8054 123.946,-81.353 113.411,-82.4826 116.415,-88.8054"/>
</g>
</g>
</svg>
