<?xml version="1.0" encoding="UTF-8" standalone="no"?>
<!DOCTYPE svg PUBLIC "-//W3C//DTD SVG 1.1//EN"
 "http://www.w3.org/Graphics/SVG/1.1/DTD/svg11.dtd">
<!-- Generated by graphviz version 2.40.1 (20161225.0304)
 -->
<!-- Title: %0 Pages: 1 -->
<svg width="514pt" height="204pt"
 viewBox="0.00 0.00 514.08 204.40" xmlns="http://www.w3.org/2000/svg" xmlns:xlink="http://www.w3.org/1999/xlink">
<g id="graph0" class="graph" transform="scale(1 1) rotate(0) translate(4 200.4)">
<title>%0</title>
<polygon fill="#ffffff" stroke="transparent" points="-4,4 -4,-200.4 510.0825,-200.4 510.0825,4 -4,4"/>
<text text-anchor="middle" x="253.0413" y="-178" font-family="Roboto Condensed, sans-serif" font-size="16.00" fill="#000000">react&#45;redux</text>
<!-- react&#45;redux@7.2.1 -->
<g id="node1" class="node">
<title>react&#45;redux@7.2.1</title>
<path fill="none" stroke="#000000" d="M81.839,-93.3011C81.839,-93.3011 6.3651,-93.3011 6.3651,-93.3011 3.1314,-93.3011 -.1023,-90.0674 -.1023,-86.8337 -.1023,-86.8337 -.1023,-80.3663 -.1023,-80.3663 -.1023,-77.1326 3.1314,-73.8989 6.3651,-73.8989 6.3651,-73.8989 81.839,-73.8989 81.839,-73.8989 85.0727,-73.8989 88.3064,-77.1326 88.3064,-80.3663 88.3064,-80.3663 88.3064,-86.8337 88.3064,-86.8337 88.3064,-90.0674 85.0727,-93.3011 81.839,-93.3011"/>
<text text-anchor="middle" x="44.1021" y="-80.3" font-family="Roboto Condensed, sans-serif" font-size="11.00" fill="#000000">react&#45;redux@7.2.1</text>
</g>
<!-- @babel/runtime@^7.5.5 -->
<g id="node2" class="node">
<title>@babel/runtime@^7.5.5</title>
<path fill="none" stroke="#000000" d="M242.6841,-169.3011C242.6841,-169.3011 141.5912,-169.3011 141.5912,-169.3011 138.3575,-169.3011 135.1238,-166.0674 135.1238,-162.8337 135.1238,-162.8337 135.1238,-156.3663 135.1238,-156.3663 135.1238,-153.1326 138.3575,-149.8989 141.5912,-149.8989 141.5912,-149.8989 242.6841,-149.8989 242.6841,-149.8989 245.9178,-149.8989 249.1515,-153.1326 249.1515,-156.3663 249.1515,-156.3663 249.1515,-162.8337 249.1515,-162.8337 249.1515,-166.0674 245.9178,-169.3011 242.6841,-169.3011"/>
<text text-anchor="middle" x="192.1377" y="-156.3" font-family="Roboto Condensed, sans-serif" font-size="11.00" fill="#000000">@babel/runtime@^7.5.5</text>
</g>
<!-- react&#45;redux@7.2.1&#45;&gt;@babel/runtime@^7.5.5 -->
<g id="edge1" class="edge">
<title>react&#45;redux@7.2.1&#45;&gt;@babel/runtime@^7.5.5</title>
<path fill="none" stroke="#000000" d="M56.8587,-93.2451C72.2104,-104.5225 99.068,-123.2184 124.2041,-135.6 132.5269,-139.6997 141.7296,-143.4384 150.6037,-146.6812"/>
<polygon fill="#000000" stroke="#000000" points="149.4521,-149.9863 160.0469,-149.999 151.7725,-143.382 149.4521,-149.9863"/>
</g>
<!-- prop&#45;types@15.7.2 -->
<g id="node3" class="node">
<title>prop&#45;types@15.7.2</title>
<path fill="none" stroke="#000000" d="M230.8423,-56.3011C230.8423,-56.3011 153.433,-56.3011 153.433,-56.3011 150.1993,-56.3011 146.9657,-53.0674 146.9657,-49.8337 146.9657,-49.8337 146.9657,-43.3663 146.9657,-43.3663 146.9657,-40.1326 150.1993,-36.8989 153.433,-36.8989 153.433,-36.8989 230.8423,-36.8989 230.8423,-36.8989 234.076,-36.8989 237.3096,-40.1326 237.3096,-43.3663 237.3096,-43.3663 237.3096,-49.8337 237.3096,-49.8337 237.3096,-53.0674 234.076,-56.3011 230.8423,-56.3011"/>
<text text-anchor="middle" x="192.1377" y="-43.3" font-family="Roboto Condensed, sans-serif" font-size="11.00" fill="#000000">prop&#45;types@15.7.2</text>
</g>
<!-- react&#45;redux@7.2.1&#45;&gt;prop&#45;types@15.7.2 -->
<g id="edge2" class="edge">
<title>react&#45;redux@7.2.1&#45;&gt;prop&#45;types@15.7.2</title>
<path fill="none" stroke="#000000" d="M82.6102,-73.9753C101.2983,-69.3044 123.9443,-63.6442 143.7831,-58.6857"/>
<polygon fill="#000000" stroke="#000000" points="144.7125,-62.0612 153.5654,-56.2407 143.0151,-55.2701 144.7125,-62.0612"/>
</g>
<!-- react&#45;is@16.13.1 -->
<g id="node4" class="node">
<title>react&#45;is@16.13.1</title>
<path fill="none" stroke="#000000" d="M378.6829,-93.3011C378.6829,-93.3011 309.6265,-93.3011 309.6265,-93.3011 306.3928,-93.3011 303.1591,-90.0674 303.1591,-86.8337 303.1591,-86.8337 303.1591,-80.3663 303.1591,-80.3663 303.1591,-77.1326 306.3928,-73.8989 309.6265,-73.8989 309.6265,-73.8989 378.6829,-73.8989 378.6829,-73.8989 381.9166,-73.8989 385.1503,-77.1326 385.1503,-80.3663 385.1503,-80.3663 385.1503,-86.8337 385.1503,-86.8337 385.1503,-90.0674 381.9166,-93.3011 378.6829,-93.3011"/>
<text text-anchor="middle" x="344.1547" y="-80.3" font-family="Roboto Condensed, sans-serif" font-size="11.00" fill="#000000">react&#45;is@16.13.1</text>
</g>
<!-- react&#45;redux@7.2.1&#45;&gt;react&#45;is@16.13.1 -->
<g id="edge3" class="edge">
<title>react&#45;redux@7.2.1&#45;&gt;react&#45;is@16.13.1</title>
<path fill="none" stroke="#000000" d="M76.9196,-93.2075C91.2947,-96.9399 108.4469,-100.7568 124.2041,-102.6 184.1805,-109.6158 200.0582,-109.296 260.0712,-102.6 273.0984,-101.1465 287.0539,-98.4635 299.7776,-95.5625"/>
<polygon fill="#000000" stroke="#000000" points="300.7574,-98.9272 309.6764,-93.2085 299.1379,-92.1171 300.7574,-98.9272"/>
</g>
<!-- hoist&#45;non&#45;react&#45;statics@3.3.2 -->
<g id="node5" class="node">
<title>hoist&#45;non&#45;react&#45;statics@3.3.2</title>
<path fill="none" stroke="#000000" d="M253.5374,-93.3011C253.5374,-93.3011 130.7379,-93.3011 130.7379,-93.3011 127.5042,-93.3011 124.2705,-90.0674 124.2705,-86.8337 124.2705,-86.8337 124.2705,-80.3663 124.2705,-80.3663 124.2705,-77.1326 127.5042,-73.8989 130.7379,-73.8989 130.7379,-73.8989 253.5374,-73.8989 253.5374,-73.8989 256.7711,-73.8989 260.0048,-77.1326 260.0048,-80.3663 260.0048,-80.3663 260.0048,-86.8337 260.0048,-86.8337 260.0048,-90.0674 256.7711,-93.3011 253.5374,-93.3011"/>
<text text-anchor="middle" x="192.1377" y="-80.3" font-family="Roboto Condensed, sans-serif" font-size="11.00" fill="#000000">hoist&#45;non&#45;react&#45;statics@3.3.2</text>
</g>
<!-- react&#45;redux@7.2.1&#45;&gt;hoist&#45;non&#45;react&#45;statics@3.3.2 -->
<g id="edge5" class="edge">
<title>react&#45;redux@7.2.1&#45;&gt;hoist&#45;non&#45;react&#45;statics@3.3.2</title>
<path fill="none" stroke="#000000" d="M88.5176,-83.6C96.5977,-83.6 105.2413,-83.6 113.9621,-83.6"/>
<polygon fill="#000000" stroke="#000000" points="114.2059,-87.1001 124.2058,-83.6 114.2058,-80.1001 114.2059,-87.1001"/>
</g>
<!-- loose&#45;envify@1.4.0 -->
<g id="node6" class="node">
<title>loose&#45;envify@1.4.0</title>
<path fill="none" stroke="#000000" d="M384.2986,-19.3011C384.2986,-19.3011 304.0108,-19.3011 304.0108,-19.3011 300.7771,-19.3011 297.5434,-16.0674 297.5434,-12.8337 297.5434,-12.8337 297.5434,-6.3663 297.5434,-6.3663 297.5434,-3.1326 300.7771,.1011 304.0108,.1011 304.0108,.1011 384.2986,.1011 384.2986,.1011 387.5323,.1011 390.766,-3.1326 390.766,-6.3663 390.766,-6.3663 390.766,-12.8337 390.766,-12.8337 390.766,-16.0674 387.5323,-19.3011 384.2986,-19.3011"/>
<text text-anchor="middle" x="344.1547" y="-6.3" font-family="Roboto Condensed, sans-serif" font-size="11.00" fill="#000000">loose&#45;envify@1.4.0</text>
</g>
<!-- react&#45;redux@7.2.1&#45;&gt;loose&#45;envify@1.4.0 -->
<g id="edge7" class="edge">
<title>react&#45;redux@7.2.1&#45;&gt;loose&#45;envify@1.4.0</title>
<path fill="none" stroke="#000000" d="M54.4494,-73.578C68.7839,-60.3968 96.109,-37.7249 124.2041,-27.6 177.0387,-8.5595 241.4804,-5.4223 286.9151,-6.2189"/>
<polygon fill="#000000" stroke="#000000" points="287.089,-9.7241 297.172,-6.471 287.261,-2.7262 287.089,-9.7241"/>
</g>
<!-- prop&#45;types@15.7.2&#45;&gt;react&#45;is@16.13.1 -->
<g id="edge4" class="edge">
<title>prop&#45;types@15.7.2&#45;&gt;react&#45;is@16.13.1</title>
<path fill="none" stroke="#000000" d="M231.6815,-56.2247C250.9599,-60.917 274.3398,-66.6075 294.7786,-71.5822"/>
<polygon fill="#000000" stroke="#000000" points="294.001,-74.995 304.545,-73.9593 295.6564,-68.1936 294.001,-74.995"/>
</g>
<!-- prop&#45;types@15.7.2&#45;&gt;loose&#45;envify@1.4.0 -->
<g id="edge8" class="edge">
<title>prop&#45;types@15.7.2&#45;&gt;loose&#45;envify@1.4.0</title>
<path fill="none" stroke="#000000" d="M231.6815,-36.9753C250.9599,-32.283 274.3398,-26.5925 294.7786,-21.6178"/>
<polygon fill="#000000" stroke="#000000" points="295.6564,-25.0064 304.545,-19.2407 294.001,-18.205 295.6564,-25.0064"/>
</g>
<!-- object&#45;assign@4.1.1 -->
<g id="node8" class="node">
<title>object&#45;assign@4.1.1</title>
<path fill="none" stroke="#000000" d="M385.8545,-56.3011C385.8545,-56.3011 302.4549,-56.3011 302.4549,-56.3011 299.2212,-56.3011 295.9876,-53.0674 295.9876,-49.8337 295.9876,-49.8337 295.9876,-43.3663 295.9876,-43.3663 295.9876,-40.1326 299.2212,-36.8989 302.4549,-36.8989 302.4549,-36.8989 385.8545,-36.8989 385.8545,-36.8989 389.0882,-36.8989 392.3218,-40.1326 392.3218,-43.3663 392.3218,-43.3663 392.3218,-49.8337 392.3218,-49.8337 392.3218,-53.0674 389.0882,-56.3011 385.8545,-56.3011"/>
<text text-anchor="middle" x="344.1547" y="-43.3" font-family="Roboto Condensed, sans-serif" font-size="11.00" fill="#000000">object&#45;assign@4.1.1</text>
</g>
<!-- prop&#45;types@15.7.2&#45;&gt;object&#45;assign@4.1.1 -->
<g id="edge10" class="edge">
<title>prop&#45;types@15.7.2&#45;&gt;object&#45;assign@4.1.1</title>
<path fill="none" stroke="#000000" d="M237.3362,-46.6C252.4848,-46.6 269.5987,-46.6 285.618,-46.6"/>
<polygon fill="#000000" stroke="#000000" points="285.9553,-50.1001 295.9552,-46.6 285.9552,-43.1001 285.9553,-50.1001"/>
</g>
<!-- hoist&#45;non&#45;react&#45;statics@3.3.2&#45;&gt;react&#45;is@16.13.1 -->
<g id="edge6" class="edge">
<title>hoist&#45;non&#45;react&#45;statics@3.3.2&#45;&gt;react&#45;is@16.13.1</title>
<path fill="none" stroke="#000000" d="M260.1429,-83.6C271.1708,-83.6 282.426,-83.6 292.966,-83.6"/>
<polygon fill="#000000" stroke="#000000" points="293.2326,-87.1001 303.2326,-83.6 293.2325,-80.1001 293.2326,-87.1001"/>
</g>
<!-- js&#45;tokens@6.0.0 -->
<g id="node7" class="node">
<title>js&#45;tokens@6.0.0</title>
<path fill="none" stroke="#000000" d="M499.5374,-19.3011C499.5374,-19.3011 434.7833,-19.3011 434.7833,-19.3011 431.5496,-19.3011 428.3159,-16.0674 428.3159,-12.8337 428.3159,-12.8337 428.3159,-6.3663 428.3159,-6.3663 428.3159,-3.1326 431.5496,.1011 434.7833,.1011 434.7833,.1011 499.5374,.1011 499.5374,.1011 502.7711,.1011 506.0048,-3.1326 506.0048,-6.3663 506.0048,-6.3663 506.0048,-12.8337 506.0048,-12.8337 506.0048,-16.0674 502.7711,-19.3011 499.5374,-19.3011"/>
<text text-anchor="middle" x="467.1604" y="-6.3" font-family="Roboto Condensed, sans-serif" font-size="11.00" fill="#000000">js&#45;tokens@6.0.0</text>
</g>
<!-- loose&#45;envify@1.4.0&#45;&gt;js&#45;tokens@6.0.0 -->
<g id="edge9" class="edge">
<title>loose&#45;envify@1.4.0&#45;&gt;js&#45;tokens@6.0.0</title>
<path fill="none" stroke="#000000" d="M391.0088,-9.6C399.7924,-9.6 408.9994,-9.6 417.8549,-9.6"/>
<polygon fill="#000000" stroke="#000000" points="418.0426,-13.1001 428.0425,-9.6 418.0425,-6.1001 418.0426,-13.1001"/>
</g>
</g>
</svg>
